<svg xmlns="http://www.w3.org/2000/svg" viewBox="0 0 512 512" width="512" height="512">
  <!-- Background circle -->
  <circle cx="256" cy="256" r="256" fill="#5e72e4"/>
  
  <!-- Money check icon (simplified version of fa-money-check-alt) -->
  <g fill="white" transform="translate(96, 128) scale(0.625)">
    <!-- Check/money outline -->
    <path d="M432 256H80c-8.8 0-16 7.2-16 16v160c0 8.8 7.2 16 16 16h352c8.8 0 16-7.2 16-16V272c0-8.8-7.2-16-16-16zm-16 160H96V288h320v128zm-152-64h-56c-4.4 0-8-3.6-8-8s3.6-8 8-8h56c4.4 0 8 3.6 8 8s-3.6 8-8 8zm0-32h-56c-4.4 0-8-3.6-8-8s3.6-8 8-8h56c4.4 0 8 3.6 8 8s-3.6 8-8 8zm0-32h-56c-4.4 0-8-3.6-8-8s3.6-8 8-8h56c4.4 0 8 3.6 8 8s-3.6 8-8 8zm0-32h-56c-4.4 0-8-3.6-8-8s3.6-8 8-8h56c4.4 0 8 3.6 8 8s-3.6 8-8 8z"/>
    <!-- Signature line -->
    <path d="M432 64H80c-8.8 0-16 7.2-16 16v96c0 8.8 7.2 16 16 16h352c8.8 0 16-7.2 16-16V80c0-8.8-7.2-16-16-16zm-16 96H96V96h320v64z"/>
    <!-- Dollar sign -->
    <path d="M256 96c-26.5 0-48 21.5-48 48s21.5 48 48 48 48-21.5 48-48-21.5-48-48-48zm0 64c-8.8 0-16-7.2-16-16s7.2-16 16-16 16 7.2 16 16-7.2 16-16 16z"/>
    <path d="M256 112v-8c0-4.4-3.6-8-8-8s-8 3.6-8 8v8c-8.8 0-16 7.2-16 16s7.2 16 16 16v16c-4.4 0-8-3.6-8-8v-4c0-4.4-3.6-8-8-8s-8 3.6-8 8v4c0 13.3 10.7 24 24 24v8c0 4.4 3.6 8 8 8s8-3.6 8-8v-8c8.8 0 16-7.2 16-16s-7.2-16-16-16v-16c4.4 0 8 3.6 8 8v4c0 4.4 3.6 8 8 8s8-3.6 8-8v-4c0-13.3-10.7-24-24-24z"/>
  </g>
</svg>
